<?xml version="1.0" standalone="no"?>
<!DOCTYPE svg PUBLIC "-//W3C//DTD SVG 20010904//EN"
 "http://www.w3.org/TR/2001/REC-SVG-20010904/DTD/svg10.dtd">
<svg version="1.0" xmlns="http://www.w3.org/2000/svg"
 width="104" height="104" viewBox="-10 -40 700 900"
 preserveAspectRatio="xMidYMid meet">

<g transform="translate(0.000000,787.000000) scale(0.100000,-0.100000)"
fill="#8F8F8F" hover="#C92071" stroke="none">
<path d="M2030 6951 c-950 -360 -918 -346 -1025 -463 -75 -83 -105 -147 -199
-416 -103 -293 -457 -1362 -520 -1568 -43 -140 -46 -155 -36 -199 14 -61 33
-97 77 -146 59 -65 90 -76 274 -93 126 -12 910 -76 933 -76 3 0 6 -638 8
-1417 2 -780 7 -1425 11 -1434 26 -53 458 -183 840 -253 201 -38 404 -64 591
-77 234 -16 915 -7 1096 15 336 41 665 108 960 197 180 55 257 90 272 126 8
21 13 389 16 1436 3 1048 7 1407 16 1407 28 0 778 61 925 76 116 11 176 21
201 34 76 39 150 156 150 237 0 55 -56 233 -341 1088 -276 828 -318 939 -382
1022 -55 70 -132 135 -200 170 -58 29 -327 133 -970 374 l-477 179 -823 -1
-822 0 -575 -218z m2076 12 c22 -8 17 -39 -22 -137 -48 -119 -87 -178 -167
-253 -82 -76 -177 -133 -282 -169 -67 -23 -97 -27 -190 -27 -132 -1 -206 16
-325 75 -116 56 -250 188 -303 298 -99 205 -97 212 55 222 115 7 1213 -1 1234
-9z m-1538 -114 c48 -176 140 -322 285 -448 111 -97 190 -142 327 -186 79 -26
97 -28 255 -28 165 0 173 1 265 32 153 51 229 100 361 231 108 107 120 123
167 220 28 58 60 138 71 179 11 41 23 76 25 79 8 7 144 -49 165 -69 18 -17 18
-22 6 -66 -110 -400 -423 -698 -830 -790 -100 -23 -125 -25 -270 -20 -174 6
-252 21 -385 78 -294 125 -531 387 -625 692 -24 77 -26 90 -14 103 15 15 146
73 165 74 6 0 21 -36 32 -81z m-367 -167 c103 -315 303 -563 584 -725 218
-126 457 -186 700 -174 335 16 605 131 838 356 160 154 276 340 346 553 l32
97 92 -34 c448 -162 817 -310 865 -345 50 -36 114 -119 142 -185 28 -64 503
-1487 570 -1704 53 -176 59 -211 35 -231 -9 -7 -68 -19 -133 -26 -135 -15
-663 -60 -829 -70 l-113 -7 0 365 0 365 -22 20 c-55 50 -103 50 -155 1 l-23
-21 0 -1833 0 -1832 -83 -25 c-338 -105 -703 -179 -1087 -219 -156 -16 -876
-16 -1045 1 -372 35 -725 106 -1092 217 l-83 25 0 1830 0 1831 -29 29 c-30 29
-67 37 -117 23 -46 -12 -49 -36 -52 -418 l-3 -359 -107 7 c-174 11 -707 56
-836 70 -100 11 -123 17 -137 35 -10 12 -15 30 -12 43 31 138 581 1802 630
1907 16 34 52 81 92 121 l66 65 235 92 c356 140 684 262 691 257 4 -2 22 -48
40 -102z"/>
</g>
</svg>
